STARTFONT 2.1
FONT -Monotype-Century Gothic-Bold-I-Normal--25-180-100-100-P-123-iso8859-4
SIZE 18 100 100
FONTBOUNDINGBOX 35 31 -5 -6

STARTPROPERTIES 24
FOUNDRY "Monotype"
FAMILY_NAME "Century Gothic"
WEIGHT_NAME "Bold"
SLANT "I"
SETWIDTH_NAME "Normal"
ADD_STYLE_NAME ""
PIXEL_SIZE 25
POINT_SIZE 180
RESOLUTION_X 100
RESOLUTION_Y 100
SPACING "P"
AVERAGE_WIDTH 123
CHARSET_REGISTRY "iso8859"
CHARSET_ENCODING "4"
FACE_NAME "Century Gothic Bold Italic ISO Latin4"
_DEC_DEVICE_FONTNAMES "PS=centurygothic-bit-lat4"
COPYRIGHT "Copyright (c) 1993 Monotype Typography Ltd."
CAP_HEIGHT 22
X_HEIGHT 16
WEIGHT 10
QUAD_WIDTH 16
DEFAULT_CHAR 160
FONT_DESCENT 6
FONT_ASCENT 25
ENDPROPERTIES

CHARS 191

STARTCHAR space
ENCODING 32
SWIDTH 280 0
DWIDTH 7 0
BBX 0 0 0 0
BITMAP
ENDCHAR

STARTCHAR exclam
ENCODING 33
SWIDTH 280 0
DWIDTH 7 0
BBX 6 18 1 0
BITMAP
1C
3C
3C
38
38
38
38
38
78
78
70
70
70
00
60
F0
F0
60
ENDCHAR

STARTCHAR quotedbl
ENCODING 34
SWIDTH 360 0
DWIDTH 9 0
BBX 8 6 1 12
BITMAP
E7
E7
E7
E7
E3
63
ENDCHAR

STARTCHAR numbersign
ENCODING 35
SWIDTH 600 0
DWIDTH 15 0
BBX 13 18 1 0
BITMAP
0E70
0E60
0C60
0C60
0CE0
7FF8
7FF8
1CC0
18C0
18C0
FFF8
DFF8
39C0
39C0
3980
3180
3180
3380
ENDCHAR

STARTCHAR dollar
ENCODING 36
SWIDTH 560 0
DWIDTH 14 0
BBX 14 22 -1 -3
BITMAP
00C0
03E0
0FF8
0FFC
1E38
1C00
1E00
1F00
0FC0
07E0
01F0
0078
0078
0038
3038
F878
7FF0
3FE0
0FC0
0600
0600
0600
ENDCHAR

STARTCHAR percent
ENCODING 37
SWIDTH 860 0
DWIDTH 22 0
BBX 18 19 2 -1
BITMAP
3E03C0
7FFF80
E3FF00
C30600
C30C00
E71800
FE3800
7C7000
00E000
01C000
018F80
031FC0
0638C0
0E30C0
1C30C0
3839C0
701F80
600F00
C00000
ENDCHAR

STARTCHAR ampersand
ENCODING 38
SWIDTH 680 0
DWIDTH 17 0
BBX 15 18 1 0
BITMAP
07C0
0FE0
1FF0
1E70
1C70
1CF0
1FE0
0FE0
1F80
3F80
7FC4
F3DC
E1FE
E0FC
E3F8
FFFC
7FBC
3E1E
ENDCHAR

STARTCHAR quoteright
ENCODING 39
SWIDTH 280 0
DWIDTH 7 0
BBX 3 7 3 11
BITMAP
E0
E0
E0
60
40
C0
80
ENDCHAR

STARTCHAR parenleft
ENCODING 40
SWIDTH 380 0
DWIDTH 9 0
BBX 10 24 2 -5
BITMAP
03C0
0780
0F00
1E00
1E00
3C00
3800
3800
7800
7000
7000
7000
F000
F000
F000
F000
F000
F000
7000
7000
7800
7800
3C00
3E00
ENDCHAR

STARTCHAR parenright
ENCODING 41
SWIDTH 380 0
DWIDTH 9 0
BBX 10 24 -3 -5
BITMAP
1F00
0F00
0780
0780
0380
03C0
03C0
03C0
03C0
03C0
03C0
03C0
0380
0380
0380
0780
0700
0F00
0F00
1E00
1E00
3C00
7800
F000
ENDCHAR

STARTCHAR asterisk
ENCODING 42
SWIDTH 440 0
DWIDTH 11 0
BBX 10 10 1 8
BITMAP
0E00
2E80
6D80
F5C0
3E00
3700
FDC0
6D80
2C80
0E00
ENDCHAR

STARTCHAR plus
ENCODING 43
SWIDTH 600 0
DWIDTH 15 0
BBX 13 13 1 2
BITMAP
0700
0700
0700
0700
0700
FFF8
FFF8
FFF8
0700
0700
0700
0700
0700
ENDCHAR

STARTCHAR comma
ENCODING 44
SWIDTH 280 0
DWIDTH 7 0
BBX 5 6 -1 -3
BITMAP
30
38
70
70
E0
20
ENDCHAR

STARTCHAR minus
ENCODING 45
SWIDTH 600 0
DWIDTH 15 0
BBX 13 3 1 7
BITMAP
FFF8
FFF8
FFF8
ENDCHAR

STARTCHAR period
ENCODING 46
SWIDTH 280 0
DWIDTH 7 0
BBX 4 4 0 0
BITMAP
60
F0
F0
60
ENDCHAR

STARTCHAR slash
ENCODING 47
SWIDTH 460 0
DWIDTH 11 0
BBX 10 22 1 -3
BITMAP
00C0
0180
0180
0380
0300
0300
0700
0600
0E00
0C00
0C00
1C00
1800
1800
3800
3000
7000
6000
6000
E000
C000
C000
ENDCHAR

STARTCHAR zero
ENCODING 48
SWIDTH 560 0
DWIDTH 14 0
BBX 12 18 1 0
BITMAP
0780
1FE0
3FE0
3CF0
7870
7070
F070
F070
E070
E070
E0F0
E0E0
E0E0
E1E0
F3C0
7FC0
7F80
1E00
ENDCHAR

STARTCHAR one
ENCODING 49
SWIDTH 560 0
DWIDTH 14 0
BBX 6 18 4 0
BITMAP
7C
7C
FC
1C
3C
3C
38
38
38
38
38
78
78
78
70
70
70
70
ENDCHAR

STARTCHAR two
ENCODING 50
SWIDTH 560 0
DWIDTH 14 0
BBX 12 18 0 0
BITMAP
0F80
1FE0
3FF0
3CF0
3870
7870
00F0
00F0
01E0
03C0
07C0
0F80
1F00
3E00
7800
FFE0
FFE0
FFE0
ENDCHAR

STARTCHAR three
ENCODING 51
SWIDTH 560 0
DWIDTH 14 0
BBX 11 18 1 0
BITMAP
0F80
1FC0
3FE0
79E0
70E0
00E0
01E0
0740
0780
07C0
01E0
00E0
E0E0
E0E0
F1E0
FFC0
7F80
1F00
ENDCHAR

STARTCHAR four
ENCODING 52
SWIDTH 560 0
DWIDTH 14 0
BBX 13 18 0 0
BITMAP
0078
0078
00F0
01F0
03F0
03F0
0770
0F70
1EF0
3CE0
38E0
78E0
FFF8
FFF8
FFF8
00E0
01C0
01C0
ENDCHAR

STARTCHAR five
ENCODING 53
SWIDTH 560 0
DWIDTH 14 0
BBX 13 18 0 0
BITMAP
07F8
0FF8
0FF8
0E00
1E00
1C00
1FC0
3FE0
3FF0
18F0
0070
0070
0070
30F0
F9E0
7FE0
3FC0
1F00
ENDCHAR

STARTCHAR six
ENCODING 54
SWIDTH 560 0
DWIDTH 14 0
BBX 12 18 1 0
BITMAP
0100
01C0
03C0
0780
0F00
1E00
3C00
3F80
7FE0
7FE0
F0F0
E070
E070
E0F0
F1F0
7FE0
3FC0
1F80
ENDCHAR

STARTCHAR seven
ENCODING 55
SWIDTH 560 0
DWIDTH 14 0
BBX 12 18 2 0
BITMAP
7FF0
7FF0
7FF0
00E0
01E0
03C0
0380
0780
0700
0F00
1E00
1E00
3C00
3800
7800
F000
7000
2000
ENDCHAR

STARTCHAR eight
ENCODING 56
SWIDTH 560 0
DWIDTH 14 0
BBX 12 18 1 0
BITMAP
07C0
1FE0
1FF0
3CF0
3870
3870
3CF0
0FE0
1F80
3FC0
70E0
F070
E070
E070
F0F0
7FE0
7FC0
1F80
ENDCHAR

STARTCHAR nine
ENCODING 57
SWIDTH 560 0
DWIDTH 14 0
BBX 12 18 1 0
BITMAP
1F80
3FC0
7FE0
F0F0
F070
E070
E070
F0F0
7FE0
3FE0
1FC0
03C0
0780
0F00
1E00
3C00
3800
0800
ENDCHAR

STARTCHAR colon
ENCODING 58
SWIDTH 280 0
DWIDTH 7 0
BBX 5 14 1 0
BITMAP
30
78
78
30
00
00
00
00
00
00
60
F0
F0
60
ENDCHAR

STARTCHAR semicolon
ENCODING 59
SWIDTH 280 0
DWIDTH 7 0
BBX 6 16 0 -2
BITMAP
18
3C
3C
18
00
00
00
00
00
00
20
70
70
E0
C0
C0
ENDCHAR

STARTCHAR less
ENCODING 60
SWIDTH 600 0
DWIDTH 15 0
BBX 13 16 1 1
BITMAP
0008
0018
0078
01F8
07E0
1F80
7E00
F000
F800
7E00
1F80
07E0
01F8
0078
0018
0008
ENDCHAR

STARTCHAR equal
ENCODING 61
SWIDTH 600 0
DWIDTH 15 0
BBX 13 8 1 5
BITMAP
FFF8
FFF8
FFF8
0000
0000
FFF8
FFF8
FFF8
ENDCHAR

STARTCHAR greater
ENCODING 62
SWIDTH 600 0
DWIDTH 15 0
BBX 13 16 1 1
BITMAP
8000
C000
F000
FC00
3F00
0FC0
03F0
0078
00F8
03F0
0FC0
3F00
FC00
F000
C000
8000
ENDCHAR

STARTCHAR question
ENCODING 63
SWIDTH 560 0
DWIDTH 14 0
BBX 12 19 1 0
BITMAP
1F80
3FE0
7FF0
F0F0
E070
0070
00F0
03E0
07C0
0F80
0F00
1E00
1C00
0000
0000
1C00
3C00
3C00
1800
ENDCHAR

STARTCHAR at
ENCODING 64
SWIDTH 740 0
DWIDTH 18 0
BBX 19 19 0 0
BITMAP
01F800
0FFE00
1C0780
300180
60E0C0
63FE60
47FE60
CF1E60
CE0E60
CE0C60
CE1C40
CF1CC0
67FD80
67FF00
319C00
3801C0
1E0700
07FE00
01F800
ENDCHAR

STARTCHAR A
ENCODING 65
SWIDTH 740 0
DWIDTH 18 0
BBX 17 18 0 0
BITMAP
007000
007800
00F800
00F800
01F800
03DC00
03DC00
079C00
071C00
0F1E00
0E0E00
1FFE00
1FFE00
3FFF00
780700
780700
F00700
E00780
ENDCHAR

STARTCHAR B
ENCODING 66
SWIDTH 580 0
DWIDTH 15 0
BBX 12 18 1 0
BITMAP
1F80
1FE0
3FF0
3CF0
3C70
3870
38F0
3FE0
3FC0
7FE0
70F0
7070
7070
7070
70F0
7FF0
7FE0
FF80
ENDCHAR

STARTCHAR C
ENCODING 67
SWIDTH 780 0
DWIDTH 20 0
BBX 17 18 1 0
BITMAP
01FC00
07FF00
1FFF80
3F0700
7C0100
780000
F00000
F00000
E00000
E00000
E00000
F00000
F00000
780200
7E0E00
3FFF00
1FFE00
07F800
ENDCHAR

STARTCHAR D
ENCODING 68
SWIDTH 700 0
DWIDTH 17 0
BBX 15 18 1 0
BITMAP
3FC0
3FF0
3FF8
787C
783C
781E
780E
700E
700E
700E
700E
F01E
F01C
F03C
E0F8
FFF8
FFE0
FF80
ENDCHAR

STARTCHAR E
ENCODING 69
SWIDTH 520 0
DWIDTH 13 0
BBX 12 18 1 0
BITMAP
3FF0
3FF0
3FE0
3800
7800
7800
7800
7FE0
7FE0
7FE0
7000
F000
F000
F000
F000
FFC0
FFC0
FF80
ENDCHAR

STARTCHAR F
ENCODING 70
SWIDTH 480 0
DWIDTH 12 0
BBX 11 18 1 0
BITMAP
3FE0
3FE0
3FE0
3800
7800
7800
7800
7FC0
7FC0
7FC0
7000
F000
F000
F000
F000
E000
E000
E000
ENDCHAR

STARTCHAR G
ENCODING 71
SWIDTH 840 0
DWIDTH 21 0
BBX 18 18 1 0
BITMAP
03F800
0FFE00
1FFF00
3E0F80
7C0300
780000
F00000
F00000
E00000
E07FC0
E07FC0
F07FC0
F00380
780780
7C1F00
3FFE00
1FFC00
07F000
ENDCHAR

STARTCHAR H
ENCODING 72
SWIDTH 680 0
DWIDTH 17 0
BBX 15 18 1 0
BITMAP
3C0E
380E
381E
381E
381E
381C
781C
7FFC
7FFC
7FDC
703C
703C
7038
F038
F038
F038
E038
E078
ENDCHAR

STARTCHAR I
ENCODING 73
SWIDTH 280 0
DWIDTH 7 0
BBX 5 18 1 0
BITMAP
38
38
38
38
38
78
78
70
70
70
70
70
F0
F0
E0
E0
E0
E0
ENDCHAR

STARTCHAR J
ENCODING 74
SWIDTH 480 0
DWIDTH 12 0
BBX 12 18 -1 0
BITMAP
0070
0070
0070
00F0
00F0
00F0
00E0
00E0
00E0
00E0
01E0
01E0
01E0
31C0
F9C0
7FC0
3F80
1F00
ENDCHAR

STARTCHAR K
ENCODING 75
SWIDTH 620 0
DWIDTH 16 0
BBX 15 18 1 0
BITMAP
3C3E
3C7C
38F8
39F0
3BE0
3FC0
7F80
7F00
7E00
7F00
7780
7780
73C0
F1C0
F1E0
F0F0
E070
E078
ENDCHAR

STARTCHAR L
ENCODING 76
SWIDTH 440 0
DWIDTH 11 0
BBX 9 18 1 0
BITMAP
3C00
3C00
3800
3800
3800
3800
7800
7800
7800
7000
7000
7000
7000
F000
F000
FF80
FF80
FF80
ENDCHAR

STARTCHAR M
ENCODING 77
SWIDTH 900 0
DWIDTH 22 0
BBX 20 18 0 0
BITMAP
070070
0F00F0
0F00F0
0F01F0
1F81F0
1F83F0
1F83F0
1D87B0
3DC770
39CF70
39CE70
39DE70
78FC70
70FC70
70F870
70F870
F07070
E07070
ENDCHAR

STARTCHAR N
ENCODING 78
SWIDTH 740 0
DWIDTH 18 0
BBX 17 18 1 0
BITMAP
380780
3C0700
3C0700
3E0700
3F0700
3F0700
7B8700
7B8F00
73CF00
71CE00
71EE00
70EE00
707E00
F07E00
F03E00
E03E00
E01C00
E01C00
ENDCHAR

STARTCHAR O
ENCODING 79
SWIDTH 840 0
DWIDTH 21 0
BBX 19 18 1 0
BITMAP
01FC00
07FF00
1FFF80
3F07C0
7C03E0
7801E0
F000E0
F000E0
E000E0
E000E0
E001E0
E001E0
F003C0
7807C0
7C1F80
3FFF00
1FFC00
07F000
ENDCHAR

STARTCHAR P
ENCODING 80
SWIDTH 560 0
DWIDTH 14 0
BBX 12 18 1 0
BITMAP
3F80
3FE0
3FF0
38F0
7870
7870
70F0
7FE0
7FC0
7F80
7000
F000
F000
F000
E000
E000
E000
E000
ENDCHAR

STARTCHAR Q
ENCODING 81
SWIDTH 840 0
DWIDTH 21 0
BBX 20 18 1 0
BITMAP
01FC00
07FF00
1FFF80
3F07C0
3C03C0
7801E0
F000E0
F000E0
E000E0
E000E0
E001E0
E001E0
F07DC0
781FC0
7C1F00
3FFF80
1FFFC0
07F3F0
ENDCHAR

STARTCHAR R
ENCODING 82
SWIDTH 580 0
DWIDTH 15 0
BBX 12 18 1 0
BITMAP
3F80
3FE0
3FF0
38F0
7870
7870
70F0
7FE0
7FC0
7F80
7700
F780
F380
F3C0
E1C0
E1E0
E0E0
E0F0
ENDCHAR

STARTCHAR S
ENCODING 83
SWIDTH 520 0
DWIDTH 13 0
BBX 13 18 -1 0
BITMAP
07E0
0FF0
1FF8
1E78
1C10
1E00
1F00
0F80
07C0
03E0
01F0
00F0
0070
3070
F8F0
7FF0
3FE0
0F80
ENDCHAR

STARTCHAR T
ENCODING 84
SWIDTH 420 0
DWIDTH 10 0
BBX 11 18 1 0
BITMAP
FFE0
FFE0
FFE0
1E00
1E00
1C00
1C00
1C00
1C00
1C00
3C00
3C00
3800
3800
3800
3800
3800
7800
ENDCHAR

STARTCHAR U
ENCODING 85
SWIDTH 640 0
DWIDTH 16 0
BBX 14 18 2 0
BITMAP
783C
783C
7838
7038
7038
7078
7078
F078
F078
F070
E070
E070
E0F0
E0F0
F1E0
7FE0
7FC0
1F00
ENDCHAR

STARTCHAR V
ENCODING 86
SWIDTH 700 0
DWIDTH 17 0
BBX 17 18 1 0
BITMAP
F00380
700780
700F00
700F00
781E00
381E00
383C00
383800
3C7800
1C7000
1CF000
1DE000
1EE000
0FC000
0FC000
0F8000
0F0000
070000
ENDCHAR

STARTCHAR W
ENCODING 87
SWIDTH 900 0
DWIDTH 22 0
BBX 21 18 2 0
BITMAP
E07038
E07078
E0F070
E0F070
E1F8F0
E1F8E0
E3D8E0
E3B9C0
E7B9C0
F73DC0
771D80
761F80
7E1F80
7C1F00
7C1F00
780F00
780E00
700E00
ENDCHAR

STARTCHAR X
ENCODING 88
SWIDTH 680 0
DWIDTH 17 0
BBX 17 18 0 0
BITMAP
1E0780
0E0F00
0F1E00
071E00
07BC00
03B800
03F000
03F000
01E000
03E000
07E000
07F000
0F7000
1E7800
1E3800
3C3C00
781C00
F01E00
ENDCHAR

STARTCHAR Y
ENCODING 89
SWIDTH 620 0
DWIDTH 16 0
BBX 15 18 1 0
BITMAP
E01E
F03C
7078
7878
38F0
39E0
3DC0
1FC0
1F80
0F00
0F00
0E00
0E00
0E00
1E00
1E00
1E00
1C00
ENDCHAR

STARTCHAR Z
ENCODING 90
SWIDTH 500 0
DWIDTH 13 0
BBX 12 18 0 0
BITMAP
3FF0
3FF0
3FE0
01E0
01C0
03C0
0380
0780
0700
0F00
0E00
1E00
1C00
3C00
3800
7FE0
7FE0
FFE0
ENDCHAR

STARTCHAR bracketleft
ENCODING 91
SWIDTH 320 0
DWIDTH 8 0
BBX 8 23 1 -5
BITMAP
1F
1F
1F
3C
3C
38
38
38
38
38
78
78
70
70
70
70
70
F0
F0
E0
F8
F8
F8
ENDCHAR

STARTCHAR backslash
ENCODING 92
SWIDTH 640 0
DWIDTH 16 0
BBX 10 22 3 -3
BITMAP
C000
E000
6000
6000
7000
3000
3800
1800
1800
1C00
0C00
0C00
0E00
0600
0700
0300
0300
0380
0180
0180
01C0
00C0
ENDCHAR

STARTCHAR bracketright
ENCODING 93
SWIDTH 320 0
DWIDTH 8 0
BBX 8 23 -1 -5
BITMAP
1F
3F
3F
0F
0E
0E
0E
0E
1E
1E
1E
1C
1C
1C
1C
3C
3C
3C
38
38
F8
F8
F8
ENDCHAR

STARTCHAR asciicircum
ENCODING 94
SWIDTH 600 0
DWIDTH 15 0
BBX 13 14 1 4
BITMAP
0700
0700
0F80
0F80
0F80
1DC0
1DC0
3CC0
38E0
38E0
7070
7070
7070
E038
ENDCHAR

STARTCHAR underscore
ENCODING 95
SWIDTH 500 0
DWIDTH 13 0
BBX 13 1 0 -3
BITMAP
FFF8
ENDCHAR

STARTCHAR quoteleft
ENCODING 96
SWIDTH 280 0
DWIDTH 7 0
BBX 3 7 3 11
BITMAP
20
60
40
E0
E0
E0
E0
ENDCHAR

STARTCHAR a
ENCODING 97
SWIDTH 660 0
DWIDTH 16 0
BBX 14 14 1 0
BITMAP
0F9C
1FDC
3FFC
787C
F03C
F03C
E01C
E03C
E038
F038
78F8
7FF8
3FB8
0F38
ENDCHAR

STARTCHAR b
ENCODING 98
SWIDTH 660 0
DWIDTH 16 0
BBX 14 18 1 0
BITMAP
3800
3800
3800
7800
79C0
77F0
7FF8
7C3C
703C
701C
701C
E01C
F03C
F03C
F878
FFF0
EFE0
E7C0
ENDCHAR

STARTCHAR c
ENCODING 99
SWIDTH 640 0
DWIDTH 16 0
BBX 14 14 1 0
BITMAP
07E0
1FF0
3FFC
7C38
7010
F000
E000
E000
E000
F020
F870
7FF8
3FF0
0FC0
ENDCHAR

STARTCHAR d
ENCODING 100
SWIDTH 660 0
DWIDTH 16 0
BBX 15 18 1 0
BITMAP
000E
000E
000E
001E
079E
1FDC
3FFC
787C
F03C
F03C
E01C
E03C
E038
F038
78F8
7FF8
3FB8
0F38
ENDCHAR

STARTCHAR e
ENCODING 101
SWIDTH 640 0
DWIDTH 16 0
BBX 14 14 1 0
BITMAP
07C0
1FF0
3FF8
7C7C
703C
F01C
FFFC
FFFC
E000
F000
F860
7FF8
3FF0
0FC0
ENDCHAR

STARTCHAR f
ENCODING 102
SWIDTH 280 0
DWIDTH 7 0
BBX 8 19 0 0
BITMAP
0F
1F
1F
3C
38
7E
7E
FE
38
38
78
78
70
70
70
70
70
F0
F0
ENDCHAR

STARTCHAR g
ENCODING 103
SWIDTH 660 0
DWIDTH 16 0
BBX 14 19 1 -5
BITMAP
0F9C
1FEC
3FFC
7C7C
703C
F03C
E01C
E01C
E038
F078
78F8
7FF8
3F98
1F78
0070
60F0
FFE0
7FC0
1F80
ENDCHAR

STARTCHAR h
ENCODING 104
SWIDTH 600 0
DWIDTH 15 0
BBX 12 18 1 0
BITMAP
3800
3800
3800
3800
7BC0
77E0
7FF0
7CF0
7870
7070
7070
F070
E0F0
E0F0
E0E0
E0E0
E0E0
E0E0
ENDCHAR

STARTCHAR i
ENCODING 105
SWIDTH 240 0
DWIDTH 6 0
BBX 6 19 0 0
BITMAP
18
3C
3C
18
00
38
38
38
38
78
78
70
70
70
70
70
F0
F0
E0
ENDCHAR

STARTCHAR j
ENCODING 106
SWIDTH 260 0
DWIDTH 7 0
BBX 9 24 -3 -5
BITMAP
0300
0780
0780
0300
0000
0700
0700
0700
0700
0F00
0E00
0E00
0E00
0E00
0E00
0E00
1E00
1E00
1C00
1C00
1C00
7C00
7800
F000
ENDCHAR

STARTCHAR k
ENCODING 107
SWIDTH 580 0
DWIDTH 15 0
BBX 14 18 1 0
BITMAP
3800
3800
3800
3800
787C
70F0
71E0
73C0
7780
7F00
7E00
F700
E780
E3C0
E3C0
E1E0
E0F0
E078
ENDCHAR

STARTCHAR l
ENCODING 108
SWIDTH 240 0
DWIDTH 6 0
BBX 6 18 0 0
BITMAP
1C
3C
3C
38
38
38
38
38
78
78
70
70
70
70
70
F0
F0
E0
ENDCHAR

STARTCHAR m
ENCODING 109
SWIDTH 940 0
DWIDTH 23 0
BBX 21 14 0 0
BITMAP
39E1E0
3BF7F0
3FFFF8
7C7E78
783C38
787838
707838
707038
707078
707078
F07070
F07070
E07070
E0F070
ENDCHAR

STARTCHAR n
ENCODING 110
SWIDTH 600 0
DWIDTH 15 0
BBX 12 14 1 0
BITMAP
7BC0
77E0
7FF0
7CF0
7870
7070
F070
F070
E0F0
E0F0
E0E0
E0E0
E0E0
E0E0
ENDCHAR

STARTCHAR o
ENCODING 111
SWIDTH 640 0
DWIDTH 16 0
BBX 14 14 1 0
BITMAP
07C0
1FF0
3FF8
7C7C
703C
F01C
E01C
E01C
E03C
F03C
F8F8
7FF0
3FE0
1F80
ENDCHAR

STARTCHAR p
ENCODING 112
SWIDTH 660 0
DWIDTH 16 0
BBX 15 19 0 -5
BITMAP
3DF0
3BF8
3FFC
3E1E
381E
380E
780E
700E
781E
781E
7C3C
7FF8
77F0
73E0
F000
F000
E000
E000
E000
ENDCHAR

STARTCHAR q
ENCODING 113
SWIDTH 660 0
DWIDTH 16 0
BBX 14 19 1 -5
BITMAP
0F9C
1FDC
3FFC
787C
F03C
F03C
E01C
E03C
E038
F038
78F8
7FF8
3FB8
1F38
0078
0070
0070
0070
0070
ENDCHAR

STARTCHAR r
ENCODING 114
SWIDTH 320 0
DWIDTH 8 0
BBX 8 14 0 0
BITMAP
73
77
7E
78
78
70
70
70
F0
F0
E0
E0
E0
E0
ENDCHAR

STARTCHAR s
ENCODING 115
SWIDTH 440 0
DWIDTH 11 0
BBX 10 14 -1 0
BITMAP
0F80
1FC0
3FC0
38C0
3C40
3E00
1F00
0F80
03C0
21C0
73C0
FFC0
7F80
1F00
ENDCHAR

STARTCHAR t
ENCODING 116
SWIDTH 300 0
DWIDTH 8 0
BBX 8 19 0 0
BITMAP
1C
1C
1C
1C
3C
7F
7E
FE
38
38
38
38
78
78
70
70
70
70
70
ENDCHAR

STARTCHAR u
ENCODING 117
SWIDTH 600 0
DWIDTH 15 0
BBX 12 14 1 0
BITMAP
7070
7070
7070
F070
F070
E0F0
E0F0
E0E0
E0E0
E0E0
F1E0
7FC0
7F80
1F00
ENDCHAR

STARTCHAR v
ENCODING 118
SWIDTH 560 0
DWIDTH 14 0
BBX 13 14 1 0
BITMAP
E078
E0F0
F0E0
71E0
71C0
73C0
7B80
3B80
3F00
3E00
1E00
1C00
1C00
1800
ENDCHAR

STARTCHAR w
ENCODING 119
SWIDTH 800 0
DWIDTH 20 0
BBX 19 14 1 0
BITMAP
E0C1E0
E0C1C0
E1C3C0
F1E380
73E780
73E700
77EF00
7F7E00
3E7E00
3E7C00
3C7800
3C3800
183000
183000
ENDCHAR

STARTCHAR x
ENCODING 120
SWIDTH 560 0
DWIDTH 14 0
BBX 13 14 0 0
BITMAP
7878
38F0
3CF0
1DE0
1FC0
0F80
0700
0F80
1F80
1FC0
3DE0
78E0
70F0
F078
ENDCHAR

STARTCHAR y
ENCODING 121
SWIDTH 580 0
DWIDTH 15 0
BBX 13 19 1 -5
BITMAP
E038
E078
F070
70F0
71E0
71C0
3BC0
3B80
3F80
3F00
1F00
1E00
1C00
3C00
3800
7800
7000
F000
E000
ENDCHAR

STARTCHAR z
ENCODING 122
SWIDTH 460 0
DWIDTH 11 0
BBX 13 14 -1 0
BITMAP
3FF8
3FF0
3FE0
01C0
03C0
0780
0780
0F00
0E00
1E00
3C00
3FF0
7FF0
FFF0
ENDCHAR

STARTCHAR braceleft
ENCODING 123
SWIDTH 340 0
DWIDTH 9 0
BBX 10 24 0 -6
BITMAP
03C0
07C0
0FC0
0E00
0E00
1E00
1C00
1C00
1C00
3C00
F800
E000
F000
F800
3800
3800
3800
3800
3800
3800
3800
3E00
3E00
0E00
ENDCHAR

STARTCHAR bar
ENCODING 124
SWIDTH 600 0
DWIDTH 15 0
BBX 2 23 6 -5
BITMAP
C0
C0
C0
C0
C0
C0
C0
C0
C0
C0
C0
C0
C0
C0
C0
C0
C0
C0
C0
C0
C0
C0
C0
ENDCHAR

STARTCHAR braceright
ENCODING 125
SWIDTH 340 0
DWIDTH 9 0
BBX 10 24 -2 -6
BITMAP
1E00
1F00
1F00
0700
0700
0700
0700
0700
0700
0700
07C0
01C0
03C0
07C0
0F00
0E00
0E00
0E00
1E00
1C00
1C00
FC00
F800
F000
ENDCHAR

STARTCHAR asciitilde
ENCODING 126
SWIDTH 600 0
DWIDTH 15 0
BBX 13 5 1 6
BITMAP
7C08
FF98
FFF8
CFF8
81F0
ENDCHAR

STARTCHAR space
ENCODING 160
SWIDTH 280 0
DWIDTH 9 0
BBX 0 0 0 0
BITMAP
ENDCHAR

STARTCHAR Aogonek
ENCODING 161
SWIDTH 740 0
DWIDTH 18 0
BBX 17 23 0 -5
BITMAP
003800
007800
007800
00FC00
01FC00
01EC00
03DC00
039E00
078E00
070E00
0F0E00
0FFF00
1FFF00
3FFF00
3C0700
780780
700380
F00180
000300
000600
000600
000780
000380
ENDCHAR

STARTCHAR afii240
ENCODING 162
SWIDTH 556 0
DWIDTH 14 0
BBX 14 13 1 0
BITMAP
1C3C
3CF8
3DF0
39E0
3FC0
3F80
7FC0
7DC0
79E0
70E0
F0E0
F0F0
F0F0
ENDCHAR

STARTCHAR Rcommaaccent
ENCODING 163
SWIDTH 580 0
DWIDTH 15 0
BBX 12 23 1 -5
BITMAP
3F00
3FE0
3FF0
38F0
7870
7870
70F0
7FE0
7FE0
7F80
7700
F780
F380
F3C0
E1C0
E1E0
E0E0
E0F0
0000
0C00
1400
0800
0800
ENDCHAR

STARTCHAR currency
ENCODING 164
SWIDTH 600 0
DWIDTH 15 0
BBX 12 12 2 3
BITMAP
DFB0
FFF0
70E0
E070
E030
C030
C030
E070
E070
70E0
FFF0
DFB0
ENDCHAR

STARTCHAR Itilde
ENCODING 165
SWIDTH 280 0
DWIDTH 7 0
BBX 10 23 0 0
BITMAP
3800
FFC0
FFC0
4780
0000
1C00
1C00
1C00
1C00
1C00
3C00
3C00
3800
3800
3800
3800
3800
7800
7800
7000
7000
7000
7000
ENDCHAR

STARTCHAR Lcommaaccent
ENCODING 166
SWIDTH 440 0
DWIDTH 11 0
BBX 9 24 1 -6
BITMAP
3C00
3C00
3800
3800
3800
3800
7800
7800
7800
7000
7000
7000
7000
7000
F000
FF80
FF80
FF80
0000
0000
1800
0800
1800
1000
ENDCHAR

STARTCHAR section
ENCODING 167
SWIDTH 560 0
DWIDTH 14 0
BBX 11 24 1 -5
BITMAP
0F80
1FC0
3FE0
38E0
38E0
3C00
3E00
1F00
3F80
77C0
E1E0
E0E0
F0E0
F8E0
7FC0
3F80
1F00
0F80
0780
E380
E380
FF80
7F00
3C00
ENDCHAR

STARTCHAR hungarumlaut
ENCODING 168
SWIDTH 700 0
DWIDTH 17 0
BBX 13 5 6 16
BITMAP
1F78
1CF0
39E0
71C0
E300
ENDCHAR

STARTCHAR Scaron
ENCODING 169
SWIDTH 520 0
DWIDTH 13 0
BBX 13 22 -1 0
BITMAP
1E78
0F70
07C0
0000
07E0
0FF0
1FF8
1E78
1C10
1E00
1F00
0F80
07C0
03E0
01E0
00F0
0070
3070
F8F0
7FF0
3FE0
0F80
ENDCHAR

STARTCHAR Emacron
ENCODING 170
SWIDTH 520 0
DWIDTH 13 0
BBX 12 22 1 0
BITMAP
0FE0
0FE0
0FE0
0000
3FF0
3FF0
3FE0
3800
7800
7800
7800
7FE0
7FE0
7FE0
7000
F000
F000
F000
F000
FFC0
FFC0
FF80
ENDCHAR

STARTCHAR Gcommaaccent
ENCODING 171
SWIDTH 840 0
DWIDTH 21 0
BBX 18 23 1 -5
BITMAP
03F800
0FFE00
1FFF80
3E0FC0
7C0300
780000
F00000
F00000
E00000
E07FC0
E07FC0
F07FC0
F00380
780780
7C1F00
3FFE00
1FFC00
03F000
000000
01C000
018000
018000
008000
ENDCHAR

STARTCHAR afii237
ENCODING 172
SWIDTH 611 0
DWIDTH 15 0
BBX 16 18 2 0
BITMAP
7FFF
7FFE
7FFE
03C0
03C0
0380
0780
0780
0780
7FF8
F7F0
0F00
0F00
0F00
0E00
0E00
1E00
1E00
ENDCHAR

STARTCHAR hyphen
ENCODING 173
SWIDTH 420 0
DWIDTH 10 0
BBX 7 3 2 5
BITMAP
FE
FC
FC
ENDCHAR

STARTCHAR Zcaron
ENCODING 174
SWIDTH 500 0
DWIDTH 13 0
BBX 13 22 0 0
BITMAP
1EF8
0FC0
0780
0000
3FF0
3FF0
3FE0
01E0
01C0
03C0
0380
0780
0700
0F00
0E00
1E00
1C00
3C00
3800
7FE0
7FE0
FFE0
ENDCHAR

STARTCHAR macron
ENCODING 175
SWIDTH 420 0
DWIDTH 10 0
BBX 7 3 4 15
BITMAP
FE
FE
FE
ENDCHAR

STARTCHAR degree
ENCODING 176
SWIDTH 400 0
DWIDTH 10 0
BBX 8 8 2 10
BITMAP
3C
66
C3
81
81
C3
66
3C
ENDCHAR

STARTCHAR aogonek
ENCODING 177
SWIDTH 660 0
DWIDTH 16 0
BBX 15 19 1 -5
BITMAP
07CE
1FFE
3FFE
7C3C
701C
F01C
E01C
E01C
E01C
F03C
787C
7FF8
3FD8
1F18
0030
0060
0060
0078
0038
ENDCHAR

STARTCHAR ogonek
ENCODING 178
SWIDTH 340 0
DWIDTH 9 0
BBX 4 5 2 -5
BITMAP
70
C0
C0
F0
70
ENDCHAR

STARTCHAR rcommaaccent
ENCODING 179
SWIDTH 320 0
DWIDTH 8 0
BBX 8 19 0 -5
BITMAP
73
77
7E
78
78
70
70
70
F0
F0
E0
E0
E0
E0
00
30
30
10
20
ENDCHAR

STARTCHAR acute
ENCODING 180
SWIDTH 420 0
DWIDTH 10 0
BBX 7 5 4 16
BITMAP
1E
1C
38
70
E0
ENDCHAR

STARTCHAR itilde
ENCODING 181
SWIDTH 240 0
DWIDTH 6 0
BBX 10 19 -1 0
BITMAP
3800
FF80
7FC0
0000
0000
1C00
1C00
1C00
3C00
3C00
3800
3800
3800
3800
3800
3800
7800
7800
7000
ENDCHAR

STARTCHAR lcommaaccent
ENCODING 182
SWIDTH 240 0
DWIDTH 6 0
BBX 6 24 0 -5
BITMAP
1C
3C
3C
38
38
38
38
38
38
78
78
70
70
70
70
70
F0
F0
E0
00
60
E0
40
40
ENDCHAR

STARTCHAR caron
ENCODING 183
SWIDTH 540 0
DWIDTH 14 0
BBX 10 4 3 15
BITMAP
F3C0
7B80
3E00
1C00
ENDCHAR

STARTCHAR commaaccent
ENCODING 184
SWIDTH 333 0
DWIDTH 8 0
BBX 2 4 3 -5
BITMAP
C0
C0
40
80
ENDCHAR

STARTCHAR scaron
ENCODING 185
SWIDTH 440 0
DWIDTH 11 0
BBX 12 19 -1 0
BITMAP
3DF0
1FC0
0F80
0000
0000
0F00
1FC0
3FC0
38C0
3C40
3E00
1F00
0F80
03C0
21C0
73C0
FFC0
7F80
1F00
ENDCHAR

STARTCHAR emacron
ENCODING 186
SWIDTH 640 0
DWIDTH 16 0
BBX 14 18 1 0
BITMAP
07F8
07F0
07F0
0000
07C0
1FF0
3FF8
7C78
703C
F01C
FFFC
FFFC
E000
F000
F860
7FF8
3FF0
0FC0
ENDCHAR

STARTCHAR gcommaaccent
ENCODING 187
SWIDTH 660 0
DWIDTH 16 0
BBX 14 25 1 -5
BITMAP
0080
0080
01C0
0180
0000
0000
0F9C
1FEC
3FFC
7C7C
703C
F03C
E01C
E01C
E038
F078
78F8
7FF8
3F98
1F78
0070
60F0
FFE0
7FC0
1F80
ENDCHAR

STARTCHAR afii253
ENCODING 188
SWIDTH 333 0
DWIDTH 8 0
BBX 9 18 1 -1
BITMAP
0300
0600
0E00
1E00
7F80
7F80
7F00
1C00
3C00
3C00
FF00
FF00
3800
7800
7800
7E00
3E00
1E00
ENDCHAR

STARTCHAR afii238
ENCODING 189
SWIDTH 723 0
DWIDTH 18 0
BBX 17 18 2 0
BITMAP
1E7C00
1EFF00
1EFF00
1F8F80
3E0780
3C0780
3C0780
3C0780
380780
780700
780F00
780F00
700F00
701E00
F09E00
F1FC00
F3F800
E1F000
ENDCHAR

STARTCHAR zcaron
ENCODING 190
SWIDTH 460 0
DWIDTH 11 0
BBX 13 20 -1 0
BITMAP
1C78
0EE0
0FC0
0780
0000
0000
3FF8
3FF0
3FE0
01C0
03C0
0780
0780
0F00
0E00
1E00
3C00
3FF0
7FF0
FFF0
ENDCHAR

STARTCHAR afii254
ENCODING 191
SWIDTH 611 0
DWIDTH 15 0
BBX 14 19 1 -5
BITMAP
1CF0
3DF8
3FFC
3E3C
3C3C
383C
7838
7838
7878
7078
7078
7070
F070
F0F0
00F0
00E0
07E0
07E0
07C0
ENDCHAR

STARTCHAR Amacron
ENCODING 192
SWIDTH 740 0
DWIDTH 18 0
BBX 17 22 0 0
BITMAP
00FE00
01FC00
01FC00
000000
007000
007800
00F800
00F800
01F800
03DC00
03DC00
079C00
071C00
0F1E00
0E0E00
1FFE00
1FFE00
3FFF00
780700
780700
F00700
E00780
ENDCHAR

STARTCHAR Aacute
ENCODING 193
SWIDTH 740 0
DWIDTH 18 0
BBX 17 24 0 0
BITMAP
000F00
001E00
003C00
003000
006000
000000
007000
007800
00F800
00F800
01F800
03DC00
03DC00
079C00
071C00
0F1E00
0E0E00
1FFE00
1FFE00
3FFF00
780700
780700
F00700
E00780
ENDCHAR

STARTCHAR Acircumflex
ENCODING 194
SWIDTH 740 0
DWIDTH 18 0
BBX 17 22 0 0
BITMAP
007800
00FC00
03CF00
000000
007000
007800
00F800
00F800
01F800
03DC00
03DC00
079C00
071C00
0F1E00
0E0E00
1FFE00
1FFE00
3FFF00
780700
780700
F00700
E00780
ENDCHAR

STARTCHAR Atilde
ENCODING 195
SWIDTH 740 0
DWIDTH 18 0
BBX 17 23 0 0
BITMAP
01E000
03FE00
03FF00
011C00
000000
007000
007800
00F800
00F800
01F800
03DC00
03DC00
079C00
071C00
0F1E00
0E0E00
1FFE00
1FFE00
3FFF00
780700
780700
F00700
E00780
ENDCHAR

STARTCHAR Adieresis
ENCODING 196
SWIDTH 740 0
DWIDTH 18 0
BBX 16 22 0 0
BITMAP
01CE
03DE
038C
0000
0070
0070
00F0
01F8
01F8
03D8
03B8
079C
071C
0F1C
0E1C
1FFE
3FFE
3FFE
780E
780F
F007
E007
ENDCHAR

STARTCHAR Aring
ENCODING 197
SWIDTH 740 0
DWIDTH 18 0
BBX 17 25 0 0
BITMAP
003000
007800
00CC00
00CC00
007800
003000
000000
007800
007800
00F800
00F800
01FC00
03DC00
03DC00
079C00
071E00
0F1E00
0E0E00
1FFE00
1FFF00
3FFF00
780700
780700
F00780
E00380
ENDCHAR

STARTCHAR AE
ENCODING 198
SWIDTH 900 0
DWIDTH 22 0
BBX 22 18 0 0
BITMAP
007FFC
00FFF8
00EFF8
01FE00
01DE00
03DE00
039C00
079FF8
071FF8
0F1FF0
0E1C00
1FFC00
1FFC00
3FFC00
783800
783FF0
F03FF0
F03FE0
ENDCHAR

STARTCHAR Iogonek
ENCODING 199
SWIDTH 280 0
DWIDTH 7 0
BBX 7 23 0 -5
BITMAP
1E
1C
1C
1C
1C
1C
3C
3C
38
38
38
38
38
38
78
70
70
30
60
C0
C0
F0
70
ENDCHAR

STARTCHAR Ccaron
ENCODING 200
SWIDTH 780 0
DWIDTH 20 0
BBX 17 22 1 0
BITMAP
03CF00
01EC00
00F800
000000
01FC00
07FF00
1FFF80
3F0700
7C0100
780000
F00000
F00000
E00000
E00000
E00000
F00000
F00000
780200
7E0E00
3FFF00
1FFE00
03F800
ENDCHAR

STARTCHAR Eacute
ENCODING 201
SWIDTH 520 0
DWIDTH 13 0
BBX 12 24 1 0
BITMAP
01F0
01C0
0380
0700
0E00
0000
3FF0
3FF0
3FE0
3800
7800
7800
7800
7FE0
7FE0
7FE0
7000
F000
F000
F000
F000
FFC0
FFC0
FF80
ENDCHAR

STARTCHAR Eogonek
ENCODING 202
SWIDTH 520 0
DWIDTH 13 0
BBX 12 23 1 -5
BITMAP
3FF0
3FF0
3FF0
3800
3800
3800
7800
7FE0
7FE0
7FE0
7000
7000
7000
F000
F000
FFC0
FFC0
FFC0
0300
0600
0600
0780
0380
ENDCHAR

STARTCHAR Edieresis
ENCODING 203
SWIDTH 520 0
DWIDTH 13 0
BBX 12 22 1 0
BITMAP
1CE0
3DE0
38C0
0000
3FF0
3FF0
3FE0
3800
3800
3800
7800
7FE0
7FE0
7FC0
7000
7000
7000
7000
F000
FFC0
FFC0
FF80
ENDCHAR

STARTCHAR Edotaccent
ENCODING 204
SWIDTH 520 0
DWIDTH 13 0
BBX 12 22 1 0
BITMAP
0380
0780
0700
0000
3FF0
3FF0
3FF0
3800
3800
3800
7800
7FE0
7FE0
7FE0
7000
7000
7000
7000
F000
FFC0
FFC0
FFC0
ENDCHAR

STARTCHAR Iacute
ENCODING 205
SWIDTH 280 0
DWIDTH 7 0
BBX 9 24 1 0
BITMAP
0780
0E00
1C00
3800
7000
0000
3800
3800
3800
3800
3800
7800
7800
7000
7000
7000
7000
7000
F000
F000
E000
E000
E000
E000
ENDCHAR

STARTCHAR Icircumflex
ENCODING 206
SWIDTH 280 0
DWIDTH 7 0
BBX 10 22 0 0
BITMAP
1E00
3F00
F7C0
0000
1C00
1C00
1C00
1C00
1C00
3C00
3C00
3800
3800
3800
3800
3800
7800
7800
7000
7000
7000
7000
ENDCHAR

STARTCHAR Imacron
ENCODING 207
SWIDTH 280 0
DWIDTH 7 0
BBX 8 22 1 0
BITMAP
7F
7F
7F
00
38
38
38
38
38
78
78
70
70
70
70
70
F0
F0
E0
E0
E0
E0
ENDCHAR

STARTCHAR Eth
ENCODING 208
SWIDTH 742 0
DWIDTH 19 0
BBX 16 18 1 0
BITMAP
1FE0
1FF8
1FFC
3C3E
3C1E
3C0F
3C07
3807
FF87
FF87
3807
780F
780E
781E
707C
7FFC
7FF0
7FC0
ENDCHAR

STARTCHAR Ncommaaccent
ENCODING 209
SWIDTH 740 0
DWIDTH 18 0
BBX 17 23 1 -5
BITMAP
380780
3C0700
3C0700
3E0700
3F0700
3F0700
7B8700
7B8F00
73CF00
71CE00
71EE00
70EE00
707E00
F07E00
F03E00
E03E00
E01C00
E01C00
000000
030000
030000
010000
020000
ENDCHAR

STARTCHAR Omacron
ENCODING 210
SWIDTH 840 0
DWIDTH 21 0
BBX 19 22 1 0
BITMAP
00FE00
00FE00
01FE00
000000
03FC00
07FF00
1FFF80
3F07C0
7C03E0
7801E0
F000E0
F000E0
E000E0
E000E0
E001E0
E001E0
F003C0
F807C0
7C1F80
3FFF00
1FFC00
07F000
ENDCHAR

STARTCHAR Kcommaaccent
ENCODING 211
SWIDTH 620 0
DWIDTH 16 0
BBX 15 23 1 -5
BITMAP
3C3E
3C7C
38F8
39F0
3BE0
3FC0
7F80
7F00
7E00
7F00
7780
7780
73C0
F1C0
F1E0
F0F0
E070
E078
0000
0600
0E00
0400
0400
ENDCHAR

STARTCHAR Ocircumflex
ENCODING 212
SWIDTH 840 0
DWIDTH 21 0
BBX 19 22 1 0
BITMAP
007800
00FC00
03DF00
000000
01FC00
07FF00
1FFF80
3F07C0
3C03E0
7801E0
F000E0
F000E0
E000E0
E000E0
E001E0
E001E0
F003C0
F807C0
7C1F80
3FFF00
1FFC00
07F000
ENDCHAR

STARTCHAR Otilde
ENCODING 213
SWIDTH 840 0
DWIDTH 21 0
BBX 19 23 1 0
BITMAP
01C000
07FE00
03FF00
021C00
000000
01FC00
07FF00
1FFF80
3F07C0
3C03E0
7801E0
F000E0
F000E0
E000E0
E000E0
E001E0
E001E0
F003C0
F807C0
7C1F80
3FFF00
1FFC00
07F000
ENDCHAR

STARTCHAR Odieresis
ENCODING 214
SWIDTH 840 0
DWIDTH 21 0
BBX 18 22 2 0
BITMAP
039C00
07BC00
031800
000000
03F800
0FFE00
1FFF00
3E0F80
7C07C0
7803C0
F001C0
F001C0
E001C0
E001C0
E003C0
E003C0
F00780
F00F80
7C3F00
3FFE00
1FF800
07E000
ENDCHAR

STARTCHAR multiply
ENCODING 215
SWIDTH 600 0
DWIDTH 15 0
BBX 11 12 2 3
BITMAP
4040
E0E0
F1E0
7BC0
3F80
0E00
1F00
3F80
7BC0
F1E0
E0E0
4040
ENDCHAR

STARTCHAR Oslash
ENCODING 216
SWIDTH 840 0
DWIDTH 21 0
BBX 19 19 1 -1
BITMAP
01FCE0
07FFC0
1FFF80
3F07C0
3C07C0
780DE0
F018E0
F030E0
E070E0
E0E0E0
E1C1E0
E381E0
F703C0
FE07C0
7C1F80
3FFF00
7FFC00
67F000
200000
ENDCHAR

STARTCHAR Uogonek
ENCODING 217
SWIDTH 640 0
DWIDTH 16 0
BBX 14 23 2 -5
BITMAP
383C
7838
7038
7038
7078
7078
7078
7078
F070
E070
E070
E0F0
E0F0
E0F0
F1E0
7FE0
7FC0
1F80
0C00
1800
1800
1E00
0E00
ENDCHAR

STARTCHAR Uacute
ENCODING 218
SWIDTH 640 0
DWIDTH 16 0
BBX 14 24 2 0
BITMAP
0078
00F0
01C0
0180
0700
0000
783C
783C
7838
7038
7038
7078
7078
F078
F078
F070
E070
E070
E0F0
E0F0
F1E0
7FE0
7FC0
1F80
ENDCHAR

STARTCHAR Ucircumflex
ENCODING 219
SWIDTH 640 0
DWIDTH 16 0
BBX 14 22 2 0
BITMAP
03C0
07E0
1E78
0000
783C
783C
7838
7038
7038
7078
7078
F078
F078
F070
E070
E070
E0F0
E0F0
F1E0
7FE0
7FC0
1F80
ENDCHAR

STARTCHAR Udieresis
ENCODING 220
SWIDTH 640 0
DWIDTH 16 0
BBX 14 22 2 0
BITMAP
0E70
1EF0
1CE0
0000
783C
7838
7838
7038
7038
7078
7078
F078
F070
F070
E070
E070
E0F0
E0F0
F1E0
7FE0
7FC0
1F00
ENDCHAR

STARTCHAR Utilde
ENCODING 221
SWIDTH 640 0
DWIDTH 16 0
BBX 14 23 2 0
BITMAP
0700
1FF8
1FF8
08F0
0000
783C
783C
7838
7038
7038
7078
7078
F078
F078
F070
E070
E070
E0F0
E0F0
F1E0
7FE0
7FC0
1F00
ENDCHAR

STARTCHAR Umacron
ENCODING 222
SWIDTH 640 0
DWIDTH 16 0
BBX 14 22 2 0
BITMAP
07F0
07F0
07F0
0000
783C
783C
7838
7038
7038
7078
7078
F078
F078
F070
E070
E070
E0F0
E0F0
F1E0
7FE0
7FC0
1F80
ENDCHAR

STARTCHAR germandbls
ENCODING 223
SWIDTH 600 0
DWIDTH 15 0
BBX 13 19 1 0
BITMAP
07E0
0FF0
1FF8
3C78
3838
3838
7878
79F0
73C0
73E0
7070
7038
7038
F038
F078
F0F8
E7F0
E7E0
E7C0
ENDCHAR

STARTCHAR amacron
ENCODING 224
SWIDTH 660 0
DWIDTH 16 0
BBX 14 18 1 0
BITMAP
03F8
07F0
07F0
0000
079C
1FDC
3FFC
787C
F03C
F03C
E01C
E03C
E038
F038
78F8
7FF8
3FB8
1F38
ENDCHAR

STARTCHAR aacute
ENCODING 225
SWIDTH 660 0
DWIDTH 16 0
BBX 14 21 1 0
BITMAP
0078
00F0
00E0
01C0
0380
0000
0000
0F9C
1FEC
3FFC
787C
F03C
F03C
E01C
E03C
E038
F038
78F8
7FF8
3FB8
1F38
ENDCHAR

STARTCHAR acircumflex
ENCODING 226
SWIDTH 660 0
DWIDTH 16 0
BBX 14 19 1 0
BITMAP
01E0
07F0
1F78
0000
0000
0F9C
1FEC
3FFC
787C
F03C
F03C
E01C
E03C
E038
F038
78F8
7FF8
3FB8
1F38
ENDCHAR

STARTCHAR atilde
ENCODING 227
SWIDTH 660 0
DWIDTH 16 0
BBX 14 19 1 0
BITMAP
0700
1FF8
0FF8
0070
0000
0F9C
1FEC
3FFC
787C
F03C
F03C
E01C
E03C
E038
F038
78F8
7FF8
3FB8
1F38
ENDCHAR

STARTCHAR adieresis
ENCODING 228
SWIDTH 660 0
DWIDTH 16 0
BBX 14 19 1 0
BITMAP
0E70
1EF0
0C60
0000
0000
0F9C
1FDC
3FFC
787C
F038
E038
E038
E038
E038
F078
70F8
7FF0
3FB0
1E70
ENDCHAR

STARTCHAR aring
ENCODING 229
SWIDTH 660 0
DWIDTH 16 0
BBX 14 22 1 0
BITMAP
0180
03C0
0660
0660
03C0
0180
0000
0000
0F9C
1FDC
3FFC
787C
F03C
E03C
E01C
E03C
E038
E078
70F8
7FF8
3FB8
1F78
ENDCHAR

STARTCHAR ae
ENCODING 230
SWIDTH 1080 0
DWIDTH 27 0
BBX 24 14 1 0
BITMAP
0F9DF8
1FDFFC
3FFFFE
787F1E
703C0F
F03C07
E03FFF
E03FFF
E03800
E07C00
70FE18
7FFFFE
3FBFFC
1F73F0
ENDCHAR

STARTCHAR iogonek
ENCODING 231
SWIDTH 240 0
DWIDTH 6 0
BBX 7 24 -1 -5
BITMAP
0C
1E
1E
0C
00
1C
1C
1C
3C
3C
38
38
38
38
78
78
78
78
10
60
C0
C0
F8
70
ENDCHAR

STARTCHAR ccaron
ENCODING 232
SWIDTH 640 0
DWIDTH 16 0
BBX 14 19 1 0
BITMAP
1E78
07E0
07C0
0000
0000
07E0
1FF0
3FFC
7C38
7010
F000
E000
E000
E000
F020
F870
7FF8
3FF0
0FC0
ENDCHAR

STARTCHAR eacute
ENCODING 233
SWIDTH 640 0
DWIDTH 16 0
BBX 14 21 1 0
BITMAP
0078
00F0
00E0
01C0
0380
0000
0000
07C0
1FF0
3FF8
7C7C
703C
F01C
FFFC
FFFC
E000
F000
F860
7FF8
3FF0
0FC0
ENDCHAR

STARTCHAR eogonek
ENCODING 234
SWIDTH 640 0
DWIDTH 16 0
BBX 14 19 1 -5
BITMAP
07C0
1FF0
3FF8
7C7C
703C
F01C
FFFC
FFFC
E000
E000
F060
7FF8
3FF0
1FC0
0600
0C00
0C00
0F80
0700
ENDCHAR

STARTCHAR edieresis
ENCODING 235
SWIDTH 640 0
DWIDTH 16 0
BBX 14 19 1 0
BITMAP
1CF0
1CF0
1CE0
0000
0000
0FC0
1FF0
3FF8
78F8
703C
F03C
FFFC
FFFC
E000
E000
F0E0
7FF8
3FE0
1F80
ENDCHAR

STARTCHAR edotaccent
ENCODING 236
SWIDTH 640 0
DWIDTH 16 0
BBX 14 19 1 0
BITMAP
01C0
03C0
0380
0000
0000
07C0
1FF0
3FF8
7C7C
703C
F01C
FFFC
FFFC
E000
F000
F860
7FF8
3FF0
1FC0
ENDCHAR

STARTCHAR iacute
ENCODING 237
SWIDTH 240 0
DWIDTH 6 0
BBX 9 21 0 0
BITMAP
0780
0E00
1C00
3800
7000
0000
0000
3800
3800
3800
7800
7800
7000
7000
7000
7000
7000
7000
F000
F000
E000
ENDCHAR

STARTCHAR icircumflex
ENCODING 238
SWIDTH 240 0
DWIDTH 6 0
BBX 10 19 -1 0
BITMAP
1E00
3F00
F3C0
0000
0000
1C00
1C00
1C00
3C00
3C00
3800
3800
3800
3800
3800
3800
7800
7800
7000
ENDCHAR

STARTCHAR imacron
ENCODING 239
SWIDTH 240 0
DWIDTH 6 0
BBX 8 18 0 0
BITMAP
7F
7F
00
00
38
38
38
38
78
70
70
70
70
70
70
F0
F0
E0
ENDCHAR

STARTCHAR dcroat
ENCODING 240
SWIDTH 660 0
DWIDTH 16 0
BBX 17 18 1 0
BITMAP
000E00
01FF80
01FF80
001E00
079C00
1FDC00
3FFC00
787C00
F03C00
F03C00
E01C00
E03C00
E03800
F03800
78F800
7FF800
3FB800
1F3800
ENDCHAR

STARTCHAR ncommaaccent
ENCODING 241
SWIDTH 600 0
DWIDTH 15 0
BBX 12 19 1 -5
BITMAP
7BC0
77E0
7FF0
7CF0
7870
7070
F070
F070
E0F0
E0F0
E0E0
E0E0
E0E0
E0E0
0000
0C00
0400
0C00
0800
ENDCHAR

STARTCHAR omacron
ENCODING 242
SWIDTH 640 0
DWIDTH 16 0
BBX 14 18 1 0
BITMAP
07F8
07F0
07F0
0000
07C0
1FF0
3FF8
7C7C
703C
F01C
E01C
E01C
E03C
F03C
F8F8
7FF0
3FE0
0F80
ENDCHAR

STARTCHAR kcommaaccent
ENCODING 243
SWIDTH 580 0
DWIDTH 15 0
BBX 14 24 1 -5
BITMAP
3800
3800
3800
3800
7800
787C
70F0
71E0
77C0
7780
7F00
7E00
F700
E780
E3C0
E3C0
E1E0
E0F0
E078
0000
0C00
0C00
0400
0800
ENDCHAR

STARTCHAR ocircumflex
ENCODING 244
SWIDTH 640 0
DWIDTH 16 0
BBX 14 19 1 0
BITMAP
03E0
07F0
1F78
0000
0000
07C0
1FF0
3FF8
7C7C
703C
F01C
E01C
E01C
E03C
F03C
F8F8
7FF0
3FE0
0F80
ENDCHAR

STARTCHAR otilde
ENCODING 245
SWIDTH 640 0
DWIDTH 16 0
BBX 14 19 1 0
BITMAP
0700
1FF8
0FF8
0040
0000
07C0
1FF0
3FF8
7C7C
703C
F01C
E01C
E01C
E03C
F03C
F8F8
7FF0
3FE0
0F80
ENDCHAR

STARTCHAR odieresis
ENCODING 246
SWIDTH 640 0
DWIDTH 16 0
BBX 14 19 1 0
BITMAP
0E70
1EF0
1CE0
0000
0000
07C0
1FF0
3FF8
7C7C
703C
F01C
E01C
E01C
E03C
F03C
F8F8
7FF0
3FE0
0F80
ENDCHAR

STARTCHAR divide
ENCODING 247
SWIDTH 600 0
DWIDTH 15 0
BBX 12 15 2 1
BITMAP
0F00
0F00
0F00
0F00
0000
0000
FFF0
FFF0
FFF0
0000
0000
0F00
0F00
0F00
0F00
ENDCHAR

STARTCHAR oslash
ENCODING 248
SWIDTH 660 0
DWIDTH 16 0
BBX 16 16 0 -1
BITMAP
0007
03EE
0FFC
1FFC
3E3E
387E
78EE
71CE
738E
771E
7E1E
7C7C
3FF8
3FF0
F7C0
6000
ENDCHAR

STARTCHAR uogonek
ENCODING 249
SWIDTH 600 0
DWIDTH 15 0
BBX 12 19 1 -5
BITMAP
7070
7070
7070
7070
F0F0
E0F0
E0E0
E0E0
E0E0
E1E0
F1E0
7FC0
7F80
1F00
0C00
1800
1800
1E00
0E00
ENDCHAR

STARTCHAR uacute
ENCODING 250
SWIDTH 600 0
DWIDTH 15 0
BBX 12 21 1 0
BITMAP
00F0
01E0
01C0
0380
0700
0000
0000
7070
7070
7070
F070
F070
E0F0
E0F0
E0E0
E0E0
E0E0
F1E0
7FC0
7F80
1F00
ENDCHAR

STARTCHAR ucircumflex
ENCODING 251
SWIDTH 600 0
DWIDTH 15 0
BBX 12 19 1 0
BITMAP
07C0
0FE0
3EF0
0000
0000
7070
7070
7070
F070
F070
E0F0
E0F0
E0E0
E0E0
E0E0
F1E0
7FC0
7F80
1F00
ENDCHAR

STARTCHAR udieresis
ENCODING 252
SWIDTH 600 0
DWIDTH 15 0
BBX 12 19 2 0
BITMAP
1CE0
3DE0
39C0
0000
0000
7070
7070
70F0
F0E0
E0E0
E0E0
E0E0
E0E0
E0E0
E1E0
F1C0
7FC0
7F80
1E00
ENDCHAR

STARTCHAR utilde
ENCODING 253
SWIDTH 600 0
DWIDTH 15 0
BBX 12 19 1 0
BITMAP
0E00
3FF0
1FF0
0000
0000
7070
7070
7070
F070
F070
E0F0
E0F0
E0E0
E0E0
E0E0
F1E0
7FC0
7F80
1F00
ENDCHAR

STARTCHAR umacron
ENCODING 254
SWIDTH 600 0
DWIDTH 15 0
BBX 12 18 1 0
BITMAP
0FE0
0FE0
0000
0000
7070
7070
7070
F070
F070
E0F0
E0F0
E0E0
E0E0
E0E0
F1E0
7FC0
7F80
1F00
ENDCHAR

STARTCHAR dotaccent
ENCODING 255
SWIDTH 280 0
DWIDTH 7 0
BBX 4 3 3 16
BITMAP
70
F0
E0
ENDCHAR
ENDFONT
